{
    "asset" : {
        "generator" : "Khronos glTF Blender I/O v3.2.43",
        "version" : "2.0"
    },
    "scene" : 0,
    "scenes" : [
        {
            "name" : "Scene",
            "nodes" : [
                0
            ]
        }
    ],
    "nodes" : [
        {
            "mesh" : 0,
            "name" : "T",
            "scale" : [
                0.9581484198570251,
                0.9581484198570251,
                0.9581484198570251
            ],
            "translation" : [
                -0.00853729248046875,
                0.0049199555069208145,
                0.4902436137199402
            ]
        }
    ],
    "materials" : [
        {
            "doubleSided" : true,
            "name" : "Dark Yellow Bubble Letter Material",
            "pbrMetallicRoughness" : {
                "baseColorFactor" : [
                    0.5566197037696838,
                    0.5650254487991333,
                    0.5650254487991333,
                    1
                ],
                "metallicFactor" : 0,
                "roughnessFactor" : 0.20000000298023224
            }
        }
    ],
    "meshes" : [
        {
            "name" : "Cube.023",
            "primitives" : [
                {
                    "attributes" : {
                        "POSITION" : 0,
                        "NORMAL" : 1,
                        "TEXCOORD_0" : 2
                    },
                    "indices" : 3,
                    "material" : 0
                }
            ]
        }
    ],
    "accessors" : [
        {
            "bufferView" : 0,
            "componentType" : 5126,
            "count" : 427,
            "max" : [
                0.5133106708526611,
                0.2547064423561096,
                -0.0018200874328613281
            ],
            "min" : [
                -0.4966253340244293,
                -0.2547064423561096,
                -0.9849158525466919
            ],
            "type" : "VEC3"
        },
        {
            "bufferView" : 1,
            "componentType" : 5126,
            "count" : 427,
            "type" : "VEC3"
        },
        {
            "bufferView" : 2,
            "componentType" : 5126,
            "count" : 427,
            "type" : "VEC2"
        },
        {
            "bufferView" : 3,
            "componentType" : 5123,
            "count" : 1872,
            "type" : "SCALAR"
        }
    ],
    "bufferViews" : [
        {
            "buffer" : 0,
            "byteLength" : 5124,
            "byteOffset" : 0
        },
        {
            "buffer" : 0,
            "byteLength" : 5124,
            "byteOffset" : 5124
        },
        {
            "buffer" : 0,
            "byteLength" : 3416,
            "byteOffset" : 10248
        },
        {
            "buffer" : 0,
            "byteLength" : 3744,
            "byteOffset" : 13664
        }
    ],
    "buffers" : [
        {
            "byteLength" : 17408,
            "uri" : "data:application/octet-stream;base64,"
        }
    ]
}
