{
    "asset" : {
        "generator" : "Khronos glTF Blender I/O v3.2.43",
        "version" : "2.0"
    },
    "scene" : 0,
    "scenes" : [
        {
            "name" : "Scene",
            "nodes" : [
                0
            ]
        }
    ],
    "nodes" : [
        {
            "mesh" : 0,
            "name" : "U",
            "scale" : [
                1.0871515274047852,
                1.0871515274047852,
                1.0871515274047852
            ],
            "translation" : [
                0.03284454345703125,
                0.00472700409591198,
                0.440589040517807
            ]
        }
    ],
    "materials" : [
        {
            "doubleSided" : true,
            "name" : "Dark Brown Bubble Letter Material",
            "pbrMetallicRoughness" : {
                "baseColorFactor" : [
                    0.6920649409294128,
                    0.6920649409294128,
                    0.6920649409294128,
                    1
                ],
                "metallicFactor" : 0,
                "roughnessFactor" : 0.20000000298023224
            }
        }
    ],
    "meshes" : [
        {
            "name" : "Cube.024",
            "primitives" : [
                {
                    "attributes" : {
                        "POSITION" : 0,
                        "NORMAL" : 1,
                        "TEXCOORD_0" : 2
                    },
                    "indices" : 3,
                    "material" : 0
                }
            ]
        }
    ],
    "accessors" : [
        {
            "bufferView" : 0,
            "componentType" : 5126,
            "count" : 698,
            "max" : [
                0.42840299010276794,
                0.21068637073040009,
                -0.003543555736541748
            ],
            "min" : [
                -0.5131038427352905,
                -0.21068671345710754,
                -0.8607586026191711
            ],
            "type" : "VEC3"
        },
        {
            "bufferView" : 1,
            "componentType" : 5126,
            "count" : 698,
            "type" : "VEC3"
        },
        {
            "bufferView" : 2,
            "componentType" : 5126,
            "count" : 698,
            "type" : "VEC2"
        },
        {
            "bufferView" : 3,
            "componentType" : 5123,
            "count" : 3360,
            "type" : "SCALAR"
        }
    ],
    "bufferViews" : [
        {
            "buffer" : 0,
            "byteLength" : 8376,
            "byteOffset" : 0
        },
        {
            "buffer" : 0,
            "byteLength" : 8376,
            "byteOffset" : 8376
        },
        {
            "buffer" : 0,
            "byteLength" : 5584,
            "byteOffset" : 16752
        },
        {
            "buffer" : 0,
            "byteLength" : 6720,
            "byteOffset" : 22336
        }
    ],
    "buffers" : [
        {
            "byteLength" : 29056,
            "uri" : "data:application/octet-stream;base64,"
        }
    ]
}
