{
    "asset" : {
        "generator" : "Khronos glTF Blender I/O v3.2.43",
        "version" : "2.0"
    },
    "scene" : 0,
    "scenes" : [
        {
            "name" : "Scene",
            "nodes" : [
                0
            ]
        }
    ],
    "nodes" : [
        {
            "mesh" : 0,
            "name" : "J",
            "translation" : [
                0.008508332073688507,
                0.0049199555069208145,
                0.40947020053863525
            ]
        }
    ],
    "materials" : [
        {
            "doubleSided" : true,
            "name" : "Light Blue Bubble Letter Material",
            "pbrMetallicRoughness" : {
                "baseColorFactor" : [
                    0.7167887687683105,
                    0.7167887687683105,
                    0.7167887687683105,
                    1
                ],
                "metallicFactor" : 0,
                "roughnessFactor" : 0.20000000298023224
            }
        }
    ],
    "meshes" : [
        {
            "name" : "Cube.013",
            "primitives" : [
                {
                    "attributes" : {
                        "POSITION" : 0,
                        "NORMAL" : 1,
                        "TEXCOORD_0" : 2
                    },
                    "indices" : 3,
                    "material" : 0
                }
            ]
        }
    ],
    "accessors" : [
        {
            "bufferView" : 0,
            "componentType" : 5126,
            "count" : 441,
            "max" : [
                0.5651102066040039,
                0.22624891996383667,
                -0.006541073322296143
            ],
            "min" : [
                -0.3787215054035187,
                -0.22624890506267548,
                -0.9559513330459595
            ],
            "type" : "VEC3"
        },
        {
            "bufferView" : 1,
            "componentType" : 5126,
            "count" : 441,
            "type" : "VEC3"
        },
        {
            "bufferView" : 2,
            "componentType" : 5126,
            "count" : 441,
            "type" : "VEC2"
        },
        {
            "bufferView" : 3,
            "componentType" : 5123,
            "count" : 1872,
            "type" : "SCALAR"
        }
    ],
    "bufferViews" : [
        {
            "buffer" : 0,
            "byteLength" : 5292,
            "byteOffset" : 0
        },
        {
            "buffer" : 0,
            "byteLength" : 5292,
            "byteOffset" : 5292
        },
        {
            "buffer" : 0,
            "byteLength" : 3528,
            "byteOffset" : 10584
        },
        {
            "buffer" : 0,
            "byteLength" : 3744,
            "byteOffset" : 14112
        }
    ],
    "buffers" : [
        {
            "byteLength" : 17856,
            "uri" : "data:application/octet-stream;base64,"
        }
    ]
}
