{
    "asset" : {
        "generator" : "Khronos glTF Blender I/O v3.2.43",
        "version" : "2.0"
    },
    "scene" : 0,
    "scenes" : [
        {
            "name" : "Scene",
            "nodes" : [
                0
            ]
        }
    ],
    "nodes" : [
        {
            "mesh" : 0,
            "name" : "N",
            "rotation" : [
                0,
                0.026229044422507286,
                0,
                0.9996559619903564
            ],
            "scale" : [
                1.0418505668640137,
                1.0418505668640137,
                1.0418505668640137
            ],
            "translation" : [
                -0.028405189514160156,
                0.009301912039518356,
                0.4832267165184021
            ]
        }
    ],
    "materials" : [
        {
            "doubleSided" : true,
            "name" : "Light Orange Bubble Letter Material",
            "pbrMetallicRoughness" : {
                "baseColorFactor" : [
                    0.7293407917022705,
                    0.7293407917022705,
                    0.7293407917022705,
                    1
                ],
                "metallicFactor" : 0,
                "roughnessFactor" : 0.20000000298023224
            }
        }
    ],
    "meshes" : [
        {
            "name" : "Cube.018",
            "primitives" : [
                {
                    "attributes" : {
                        "POSITION" : 0,
                        "NORMAL" : 1,
                        "TEXCOORD_0" : 2
                    },
                    "indices" : 3,
                    "material" : 0
                }
            ]
        }
    ],
    "accessors" : [
        {
            "bufferView" : 0,
            "componentType" : 5126,
            "count" : 744,
            "max" : [
                0.4657471477985382,
                0.25633010268211365,
                -0.0005247294902801514
            ],
            "min" : [
                -0.35303765535354614,
                -0.244570791721344,
                -0.9430984258651733
            ],
            "type" : "VEC3"
        },
        {
            "bufferView" : 1,
            "componentType" : 5126,
            "count" : 744,
            "type" : "VEC3"
        },
        {
            "bufferView" : 2,
            "componentType" : 5126,
            "count" : 744,
            "type" : "VEC2"
        },
        {
            "bufferView" : 3,
            "componentType" : 5123,
            "count" : 3360,
            "type" : "SCALAR"
        }
    ],
    "bufferViews" : [
        {
            "buffer" : 0,
            "byteLength" : 8928,
            "byteOffset" : 0
        },
        {
            "buffer" : 0,
            "byteLength" : 8928,
            "byteOffset" : 8928
        },
        {
            "buffer" : 0,
            "byteLength" : 5952,
            "byteOffset" : 17856
        },
        {
            "buffer" : 0,
            "byteLength" : 6720,
            "byteOffset" : 23808
        }
    ],
    "buffers" : [
        {
            "byteLength" : 30528,
            "uri" : "data:application/octet-stream;base64,"
        }
    ]
}
