{
    "asset" : {
        "generator" : "Khronos glTF Blender I/O v3.2.43",
        "version" : "2.0"
    },
    "scene" : 0,
    "scenes" : [
        {
            "name" : "Scene",
            "nodes" : [
                0
            ]
        }
    ],
    "nodes" : [
        {
            "mesh" : 0,
            "name" : "S",
            "scale" : [
                0.9282338619232178,
                0.9282338619232178,
                0.9282338619232178
            ],
            "translation" : [
                0.027429640293121338,
                0,
                0.45480161905288696
            ]
        }
    ],
    "materials" : [
        {
            "doubleSided" : true,
            "name" : "Dark Green Bubble Letter Material",
            "pbrMetallicRoughness" : {
                "baseColorFactor" : [
                    0.7156937122344971,
                    0.7835378646850586,
                    0.913098931312561,
                    1
                ],
                "metallicFactor" : 0,
                "roughnessFactor" : 0.20000000298023224
            }
        }
    ],
    "meshes" : [
        {
            "name" : "Cube.021",
            "primitives" : [
                {
                    "attributes" : {
                        "POSITION" : 0,
                        "NORMAL" : 1,
                        "TEXCOORD_0" : 2
                    },
                    "indices" : 3,
                    "material" : 0
                }
            ]
        }
    ],
    "accessors" : [
        {
            "bufferView" : 0,
            "componentType" : 5126,
            "count" : 1581,
            "max" : [
                0.374761164188385,
                0.24266983568668365,
                -0.004427313804626465
            ],
            "min" : [
                -0.40601789951324463,
                -0.237335205078125,
                -1.0372416973114014
            ],
            "type" : "VEC3"
        },
        {
            "bufferView" : 1,
            "componentType" : 5126,
            "count" : 1581,
            "type" : "VEC3"
        },
        {
            "bufferView" : 2,
            "componentType" : 5126,
            "count" : 1581,
            "type" : "VEC2"
        },
        {
            "bufferView" : 3,
            "componentType" : 5123,
            "count" : 7200,
            "type" : "SCALAR"
        }
    ],
    "bufferViews" : [
        {
            "buffer" : 0,
            "byteLength" : 18972,
            "byteOffset" : 0
        },
        {
            "buffer" : 0,
            "byteLength" : 18972,
            "byteOffset" : 18972
        },
        {
            "buffer" : 0,
            "byteLength" : 12648,
            "byteOffset" : 37944
        },
        {
            "buffer" : 0,
            "byteLength" : 14400,
            "byteOffset" : 50592
        }
    ],
    "buffers" : [
        {
            "byteLength" : 64992,
            "uri" : "data:application/octet-stream;base64,"
        }
    ]
}
